<svg width="280" height="255" viewBox="0 0 280 255" fill="none" xmlns="http://www.w3.org/2000/svg">
<path d="M38.7614 203.315C27.5008 192.054 21.8705 186.424 17.8654 180.997C-5.58286 149.226 -5.58286 105.881 17.8654 74.1096C21.8705 68.6829 27.5008 63.0526 38.7614 51.792C53.7756 36.7778 61.2827 29.2707 68.5183 23.9306C110.88 -7.33376 168.673 -7.33376 211.035 23.9306C218.271 29.2707 225.778 36.7778 240.792 51.792C252.053 63.0526 257.683 68.6829 261.688 74.1096C285.136 105.881 285.136 149.226 261.688 180.997C257.683 186.424 252.053 192.054 240.792 203.315C225.778 218.329 218.271 225.836 211.035 231.176C168.673 262.441 110.88 262.441 68.5183 231.176C61.2827 225.836 53.7756 218.329 38.7614 203.315Z" fill="#D9D9D9"/>
<path d="M38.7614 203.315C27.5008 192.054 21.8705 186.424 17.8654 180.997C-5.58286 149.226 -5.58286 105.881 17.8654 74.1096C21.8705 68.6829 27.5008 63.0526 38.7614 51.792C53.7756 36.7778 61.2827 29.2707 68.5183 23.9306C110.88 -7.33376 168.673 -7.33376 211.035 23.9306C218.271 29.2707 225.778 36.7778 240.792 51.792C252.053 63.0526 257.683 68.6829 261.688 74.1096C285.136 105.881 285.136 149.226 261.688 180.997C257.683 186.424 252.053 192.054 240.792 203.315C225.778 218.329 218.271 225.836 211.035 231.176C168.673 262.441 110.88 262.441 68.5183 231.176C61.2827 225.836 53.7756 218.329 38.7614 203.315Z" fill="#501B71" fill-opacity="0.78"/>
<path d="M170.5 148.545C169.182 148.545 168.051 148.085 167.108 147.165C166.176 146.233 165.716 145.102 165.727 143.773C165.716 142.477 166.176 141.369 167.108 140.449C168.051 139.528 169.182 139.068 170.5 139.068C171.75 139.068 172.852 139.528 173.807 140.449C174.773 141.369 175.261 142.477 175.273 143.773C175.261 144.659 175.028 145.466 174.574 146.193C174.131 146.909 173.551 147.483 172.835 147.915C172.119 148.335 171.341 148.545 170.5 148.545Z" fill="url(#paint0_linear_2_23)"/>
<path d="M188.5 121.818L192.318 129.932L196.341 121.818H205.682L198.659 134.909L206.023 148H196.75L192.318 139.682L188.023 148H178.614L186.045 134.909L179.091 121.818H188.5Z" fill="url(#paint1_linear_2_23)"/>
<path d="M214.754 157.818C213.675 157.818 212.646 157.733 211.669 157.562C210.692 157.403 209.834 157.182 209.095 156.898L211.141 150.216C211.913 150.489 212.618 150.665 213.254 150.744C213.902 150.824 214.453 150.778 214.908 150.608C215.374 150.437 215.709 150.114 215.913 149.636L216.118 149.159L206.913 121.818H216.732L220.959 139.955H221.232L225.527 121.818H235.413L225.868 150.182C225.391 151.625 224.697 152.92 223.788 154.068C222.891 155.227 221.709 156.142 220.243 156.812C218.777 157.483 216.947 157.818 214.754 157.818Z" fill="url(#paint2_linear_2_23)"/>
<path d="M238.362 148V142.818L249.817 129.114V128.977H238.771V121.818H260.93V127.545L250.499 140.705V140.841H261.339V148H238.362Z" fill="url(#paint3_linear_2_23)"/>
<path d="M83.267 77.9091L108.92 166.108H109.898L135.551 77.9091H173.909L132.619 203H86.1989L44.9091 77.9091H83.267Z" fill="url(#paint4_linear_2_23)"/>
<defs>
<linearGradient id="paint0_linear_2_23" x1="109.5" y1="36" x2="109.5" y2="244" gradientUnits="userSpaceOnUse">
<stop stop-color="white"/>
<stop offset="0.715" stop-color="#D8D8D8" stop-opacity="0.91675"/>
<stop offset="1" stop-color="#757272" stop-opacity="0.85"/>
</linearGradient>
<linearGradient id="paint1_linear_2_23" x1="109.5" y1="36" x2="109.5" y2="244" gradientUnits="userSpaceOnUse">
<stop stop-color="white"/>
<stop offset="0.715" stop-color="#D8D8D8" stop-opacity="0.91675"/>
<stop offset="1" stop-color="#757272" stop-opacity="0.85"/>
</linearGradient>
<linearGradient id="paint2_linear_2_23" x1="109.5" y1="36" x2="109.5" y2="244" gradientUnits="userSpaceOnUse">
<stop stop-color="white"/>
<stop offset="0.715" stop-color="#D8D8D8" stop-opacity="0.91675"/>
<stop offset="1" stop-color="#757272" stop-opacity="0.85"/>
</linearGradient>
<linearGradient id="paint3_linear_2_23" x1="109.5" y1="36" x2="109.5" y2="244" gradientUnits="userSpaceOnUse">
<stop stop-color="white"/>
<stop offset="0.715" stop-color="#D8D8D8" stop-opacity="0.91675"/>
<stop offset="1" stop-color="#757272" stop-opacity="0.85"/>
</linearGradient>
<linearGradient id="paint4_linear_2_23" x1="109.5" y1="36" x2="109.5" y2="244" gradientUnits="userSpaceOnUse">
<stop stop-color="white"/>
<stop offset="0.715" stop-color="#D8D8D8" stop-opacity="0.91675"/>
<stop offset="1" stop-color="#757272" stop-opacity="0.85"/>
</linearGradient>
</defs>
</svg>
